HIERARCHY
ROOT SpineBase
{
  OFFSET 0.000000 0.000000 0.000000
  CHANNELS 6 Xposition Yposition Zposition Zrotation Xrotation Yrotation
  JOINT SpineMid
  {
    OFFSET -0.000000 31.343828 0.000000
    CHANNELS 3 Zrotation Xrotation Yrotation
    JOINT SpineShoulder
    {
      OFFSET 0.096129 23.137803 -0.804371
      CHANNELS 3 Zrotation Xrotation Yrotation
      JOINT Neck
      {
        OFFSET 0.039400 7.610499 -0.607978
        CHANNELS 3 Zrotation Xrotation Yrotation
        JOINT Head
        {
          OFFSET 2.760790 14.445956 1.552005
          CHANNELS 3 Zrotation Xrotation Yrotation
          End Site
          {
            OFFSET 0 0 0
          }
        }
      }
      JOINT ShoulderLeft
      {
        OFFSET -16.229262 -3.215552 -6.284047
        CHANNELS 3 Zrotation Xrotation Yrotation
        JOINT ElbowLeft
        {
          OFFSET -5.655454 -25.400503 -2.354109
          CHANNELS 3 Zrotation Xrotation Yrotation
          JOINT WristLeft
          {
            OFFSET 1.986053 -21.890453 -6.020093
            CHANNELS 3 Zrotation Xrotation Yrotation
            JOINT HandLeft
            {
              OFFSET 3.613042 -7.400167 -0.431493
              CHANNELS 3 Zrotation Xrotation Yrotation
              JOINT HandTipLeft
              {
                OFFSET 0.966494 -7.409096 -1.248798
                CHANNELS 3 Zrotation Xrotation Yrotation
                End Site
                {
                  OFFSET 0 0 0
                }
              }
              JOINT ThumbLeft
              {
                OFFSET -2.407532 -0.665676 -2.001628
                CHANNELS 3 Zrotation Xrotation Yrotation
                End Site
                {
                  OFFSET 0 0 0
                }
              }
            }
          }
        }
      }
      JOINT ShoulderRight
      {
        OFFSET 18.297785 -4.725199 5.987128
        CHANNELS 3 Zrotation Xrotation Yrotation
        JOINT ElbowRight
        {
          OFFSET 2.452352 -26.624412 2.980759
          CHANNELS 3 Zrotation Xrotation Yrotation
          JOINT WristRight
          {
            OFFSET 0.286180 -21.052332 -9.154094
            CHANNELS 3 Zrotation Xrotation Yrotation
            JOINT HandRight
            {
              OFFSET -1.755913 -2.500685 -3.963807
              CHANNELS 3 Zrotation Xrotation Yrotation
              JOINT HandTipRight
              {
                OFFSET -1.104066 -5.672401 -2.988175
                CHANNELS 3 Zrotation Xrotation Yrotation
                End Site
                {
                  OFFSET 0 0 0
                }
              }
              JOINT ThumbRight
              {
                OFFSET -3.286644 0.819103 -2.829158
                CHANNELS 3 Zrotation Xrotation Yrotation
                End Site
                {
                  OFFSET 0 0 0
                }
              }
            }
          }
        }
      }
    }
  }
  JOINT HipLeft
  {
    OFFSET -7.504428 0.899369 -6.073532
    CHANNELS 3 Zrotation Xrotation Yrotation
    JOINT KneeLeft
    {
      OFFSET -6.849418 -35.605597 2.750984
      CHANNELS 3 Zrotation Xrotation Yrotation
      JOINT AnkleLeft
      {
        OFFSET 0.176793 -34.076812 10.922455
        CHANNELS 3 Zrotation Xrotation Yrotation
        JOINT FootLeft
        {
          OFFSET -0.113112 -9.829968 -4.413525
          CHANNELS 3 Zrotation Xrotation Yrotation
          End Site
          {
            OFFSET 0 0 0
          }
        }
      }
    }
  }
  JOINT HipRight
  {
    OFFSET 7.273568 0.034415 -1.776706
    CHANNELS 3 Zrotation Xrotation Yrotation
    JOINT KneeRight
    {
      OFFSET -1.485886 -36.059112 -0.932757
      CHANNELS 3 Zrotation Xrotation Yrotation
      JOINT AnkleRight
      {
        OFFSET -4.803372 -35.251244 8.621963
        CHANNELS 3 Zrotation Xrotation Yrotation
        JOINT FootRight
        {
          OFFSET 0.330731 -8.677544 -6.575764
          CHANNELS 3 Zrotation Xrotation Yrotation
          End Site
          {
            OFFSET 0 0 0
          }
        }
      }
    }
  }
}
MOTION
Frames: 13
Frame Time: 0.033333
12.865195 80.594734 371.978682 0.000000 0.000000 -16.212231 -0.000000 0.000000 16.212231 -0.000000 0.000000 0.000000 -0.000000 0.000000 0.000000 0.000000 0.000000 0.000000 -0.000000 0.000000 0.000000 -0.000000 0.000000 0.000000 -0.000000 0.000000 0.000000 -0.000000 0.000000 0.000000 0.000000 0.000000 0.000000 0.000000 0.000000 0.000000 -0.000000 0.000000 0.000000 -0.000000 0.000000 0.000000 -0.000000 0.000000 0.000000 -0.000000 0.000000 0.000000 0.000000 0.000000 0.000000 0.000000 0.000000 0.000000 -0.000000 0.000000 16.212231 -0.000000 0.000000 0.000000 -0.000000 0.000000 0.000000 0.000000 0.000000 0.000000 -0.000000 0.000000 16.212231 -0.000000 0.000000 0.000000 -0.000000 0.000000 0.000000 0.000000 0.000000 0.000000
13.283242 80.645430 371.856875 -0.409914 0.033653 -15.158191 0.404452 0.074704 15.158048 -0.000000 0.000000 0.000000 -0.000000 0.000000 0.000000 0.000000 0.000000 0.000000 -0.000000 0.000000 0.000000 -0.000000 0.000000 0.000000 -2.182761 1.043478 0.662450 1.550461 -0.429499 -0.442356 0.000000 0.000000 0.000000 0.000000 0.000000 0.000000 -0.898447 -0.237570 -0.124395 -0.017309 0.633191 0.530042 -1.521020 -1.059140 3.866217 2.539053 -0.978705 -4.114887 0.000000 0.000000 0.000000 0.000000 0.000000 0.000000 -0.123357 1.625847 14.842991 -0.919229 -1.657590 -0.035982 2.706582 8.810245 -0.641406 0.000000 0.000000 0.000000 0.071990 -1.140084 15.216211 0.639739 1.084900 -0.067311 -0.000000 0.000000 0.000000 0.000000 0.000000 0.000000
13.556828 80.677292 371.722578 -0.749851 0.019658 -14.309426 0.731447 0.166281 14.308493 -0.816351 -0.143493 -0.065487 0.003383 -0.605870 0.290647 0.000000 0.000000 0.000000 0.067458 -0.493059 0.272171 0.751794 0.633864 -0.215171 -4.088938 1.957735 1.285419 2.948098 -0.988175 -0.848994 0.000000 0.000000 0.000000 0.000000 0.000000 0.000000 -0.808688 -0.295677 -0.161259 0.014328 1.133833 0.944720 -3.083691 -2.938323 8.143453 4.782241 -1.071113 -8.673127 0.000000 0.000000 0.000000 0.000000 0.000000 0.000000 -0.202392 2.963796 13.750663 -1.632235 -2.807194 -0.103791 5.329280 16.828615 -1.589788 0.000000 0.000000 0.000000 0.152328 -2.052868 14.410388 1.113744 2.004981 -0.130921 0.850348 0.240727 -0.635811 0.000000 0.000000 0.000000
13.685951 80.690321 371.575791 -1.019229 -0.042135 -13.661533 -0.011149 -0.139421 13.623754 -0.013475 -0.088068 -0.049202 -0.055288 -0.853484 0.411158 0.000000 0.000000 0.000000 0.050009 -0.726879 0.393299 1.678975 1.619949 -0.457188 -6.358254 2.101259 1.906664 4.198022 -1.684185 -1.230052 0.000000 0.000000 0.000000 0.000000 0.000000 0.000000 -1.106293 -0.342171 -0.219762 0.100124 1.507326 1.238946 -4.199905 -5.561718 12.180414 6.483401 -0.274056 -13.032169 0.000000 0.000000 0.000000 0.000000 0.000000 0.000000 -0.271920 4.022310 12.922163 -2.139489 -3.457315 -0.170281 7.862108 23.745089 -2.785995 0.000000 0.000000 0.000000 0.259192 -2.739453 13.793858 1.507454 3.791658 -0.310423 1.084316 -0.801891 -0.733477 0.000000 0.000000 0.000000
13.670614 80.684517 371.416514 -1.217617 -0.151781 -13.210872 0.016954 -0.158424 13.165906 0.000314 -0.104552 -0.056057 -0.156559 -1.065399 0.516591 0.000000 0.000000 0.000000 -0.000122 -0.949944 0.504491 2.135456 1.976425 -0.643661 -7.943947 2.780563 2.466286 5.304996 -2.522942 -1.593359 0.000000 0.000000 0.000000 0.000000 0.000000 0.000000 -1.337003 -0.322612 -0.262206 0.244118 1.757704 1.409282 -4.535760 -8.544545 15.342475 7.419576 1.297607 -16.450025 0.000000 0.000000 0.000000 0.000000 0.000000 0.000000 -0.358107 4.808425 12.348433 -2.439992 -3.615697 -0.211924 10.280362 29.434184 -4.161823 0.000000 0.000000 0.000000 0.406177 -3.200963 13.365711 1.769047 4.578438 -0.357198 1.207997 -1.097927 -0.913178 0.000000 0.000000 0.000000
13.510814 80.659880 371.244746 -1.344728 -0.309245 -12.954697 0.062163 -0.163951 12.905148 0.023251 -0.114527 -0.058022 -0.301312 -1.242675 0.607971 0.000000 0.000000 0.000000 -0.082238 -1.160432 0.605875 2.537066 2.238549 -0.845160 -9.261843 3.459763 2.989398 6.271776 -3.506151 -1.943941 0.000000 0.000000 0.000000 0.000000 0.000000 0.000000 -1.503125 -0.238046 -0.288392 0.449316 1.887402 1.453758 -4.093478 -11.395527 17.297042 7.482524 3.381658 -18.415966 0.000000 0.000000 0.000000 0.000000 0.000000 0.000000 -0.479331 5.326122 12.023612 -2.532487 -3.287947 -0.214574 12.546780 33.912527 -5.645803 0.000000 0.000000 0.000000 0.602558 -3.437870 13.124753 1.909806 5.128009 -0.370429 1.211986 -1.407199 -1.063783 0.000000 0.000000 0.000000
13.212408 80.611405 371.062939 -1.341024 -0.557272 -12.738780 0.153710 -0.169024 12.690060 0.055344 -0.124687 -0.051185 -0.648289 -1.331416 0.690948 0.000000 0.000000 0.000000 -0.180878 -1.287024 0.683128 3.073420 2.220391 -1.155161 -11.301746 4.684481 3.906807 8.295511 -5.755432 -2.618290 0.000000 0.000000 0.000000 0.000000 0.000000 0.000000 -1.542087 -0.089231 -0.294808 0.834835 1.934767 1.240224 -2.412600 -14.563987 17.566114 5.265698 6.086363 -17.554064 0.000000 0.000000 0.000000 0.000000 0.000000 0.000000 -0.749056 5.612201 11.788157 -2.601000 -1.922915 -0.234090 15.608348 38.758909 -7.703397 0.000000 0.000000 0.000000 0.798640 -3.621095 12.925323 1.965478 5.796970 -0.382600 1.146746 -2.008699 -1.211718 0.000000 0.000000 0.000000
12.722070 80.542028 370.853746 -1.308316 -0.839028 -12.904708 0.242059 -0.155263 12.857506 0.098912 -0.125843 -0.042288 -0.902703 -1.365799 0.750428 0.000000 0.000000 0.000000 -0.359937 -1.422680 0.765069 3.382727 2.185494 -1.395914 -12.255909 5.397193 4.371678 8.609100 -6.916390 -2.872194 0.000000 0.000000 0.000000 0.000000 0.000000 0.000000 -1.516818 0.184838 -0.279686 1.318616 1.753341 0.908938 -1.777592 -16.213769 17.962157 3.708082 7.955614 -16.746282 0.000000 0.000000 0.000000 0.000000 0.000000 0.000000 -0.959572 5.449645 12.019330 -2.379527 -0.009540 -0.196414 17.914336 41.628879 -9.457503 0.000000 0.000000 0.000000 1.142384 -3.394568 13.091964 1.821932 5.937101 -0.324602 0.924117 -2.378814 -1.322550 0.000000 0.000000 0.000000
12.091017 80.485449 370.711892 -1.299657 -1.091184 -13.559205 0.315667 -0.113046 13.512266 0.149680 -0.114857 -0.034618 -0.909342 -1.678406 0.824884 0.000000 0.000000 0.000000 -0.506645 -1.633846 0.849622 3.289124 2.096542 -1.518400 -12.061844 5.580501 4.284102 8.202796 -7.959650 -2.920399 0.000000 0.000000 0.000000 0.000000 0.000000 0.000000 -1.429367 0.420619 -0.258804 1.337221 1.673492 0.771292 -0.025040 -18.545089 17.677360 1.829538 10.733010 -15.351645 0.000000 0.000000 0.000000 0.000000 0.000000 0.000000 -1.124331 5.076836 12.770944 -1.789556 1.727367 -0.069410 19.328950 42.870219 -10.861134 0.000000 0.000000 0.000000 1.653227 -2.815282 13.726013 1.495264 5.659051 -0.217051 0.540317 -2.471463 -1.340734 0.000000 0.000000 0.000000
11.396656 80.409974 370.450418 -1.220618 -1.289474 -14.224953 0.396187 -0.025342 14.182337 0.204429 -0.085983 -0.022760 -1.015315 -2.056760 0.884486 0.000000 0.000000 0.000000 -0.655232 -1.876001 0.902028 2.950334 2.272021 -1.531114 -10.739777 5.762924 4.106144 6.800280 -8.716886 -2.998388 0.000000 0.000000 0.000000 0.000000 0.000000 0.000000 -1.441597 0.703603 -0.231265 2.074978 0.803180 0.291509 -0.704379 -16.714514 16.519910 -2.114344 8.665609 -11.127406 0.000000 0.000000 0.000000 0.000000 0.000000 0.000000 -1.220001 4.385799 13.577806 -0.966339 3.188908 0.067445 19.758160 42.512580 -11.726137 0.000000 0.000000 0.000000 2.071200 -2.065078 14.354417 1.192860 4.785080 -0.027741 0.110250 -2.452427 -1.449402 0.000000 0.000000 0.000000
10.699515 80.338804 370.116256 -1.147217 -1.499713 -14.783356 0.411718 0.021107 14.742883 0.217162 -0.067148 -0.017510 -0.850820 -2.169940 0.899431 0.000000 0.000000 0.000000 -0.571509 -2.072695 0.953977 2.781499 2.571433 -1.610000 -9.378750 6.273091 4.190422 5.543820 -10.460370 -3.390983 0.000000 0.000000 0.000000 0.000000 0.000000 0.000000 -1.393684 1.124931 -0.191139 0.914158 0.927821 0.707259 0.452503 -16.152253 14.442951 -3.701722 6.266831 -8.783036 0.000000 0.000000 0.000000 0.000000 0.000000 0.000000 -1.261833 3.839951 14.259733 -0.119159 3.976750 0.202351 20.067885 41.931929 -12.609785 0.000000 0.000000 0.000000 2.456193 -1.130866 14.856503 0.761289 3.555030 0.186614 0.226172 -2.349360 -1.890703 0.000000 0.000000 0.000000
10.064817 80.283314 369.737288 -1.102180 -1.643061 -15.100602 0.401572 0.066252 15.061145 0.207536 -0.048255 -0.016120 -0.334058 -2.081869 0.839695 0.000000 0.000000 0.000000 -0.321580 -2.314580 0.996825 2.354272 2.781019 -1.619148 -7.814650 6.917152 4.255775 5.213694 -11.575820 -3.714662 0.000000 0.000000 0.000000 0.000000 0.000000 0.000000 -1.232835 1.701865 -0.121295 -0.421681 0.755159 1.147815 3.050731 -17.099425 11.828732 -7.074513 4.680426 -4.708600 0.000000 0.000000 0.000000 0.000000 0.000000 0.000000 -1.188467 3.341493 14.687340 0.606686 4.227371 0.302032 20.053556 41.481858 -13.283252 0.000000 0.000000 0.000000 2.701792 -0.494844 15.130316 0.699000 2.398938 0.424289 -0.011474 -1.684938 -2.213043 0.000000 0.000000 0.000000
9.585257 80.246664 369.396945 -1.040073 -1.696422 -15.489446 0.384973 0.090347 15.452463 0.201646 -0.038744 -0.014163 0.187186 -2.006296 0.767153 0.000000 0.000000 0.000000 -0.173849 -2.664271 1.057870 2.637421 3.800241 -1.794778 -6.264001 6.577590 4.133657 5.452525 -11.723668 -3.818023 0.000000 0.000000 0.000000 0.000000 0.000000 0.000000 -1.034230 2.299807 -0.042995 -1.932928 0.930581 1.626994 3.753986 -17.234115 11.207465 -5.810069 6.407882 -5.725800 0.000000 0.000000 0.000000 0.000000 0.000000 0.000000 -1.131482 2.894653 15.162650 0.786928 4.557941 0.261397 19.040338 38.992123 -12.478914 0.000000 0.000000 0.000000 2.794039 0.170060 15.474014 0.674973 1.007616 0.669242 -1.322126 -5.220830 -1.834281 0.000000 0.000000 0.000000
